<svg width="388" height="309" viewBox="0 0 388 309" fill="none" xmlns="http://www.w3.org/2000/svg">
<path d="M194 308.561C301.082 308.561 387.889 303.492 387.889 297.238C387.889 290.984 301.082 285.915 194 285.915C86.9181 285.915 0.110992 290.984 0.110992 297.238C0.110992 303.492 86.9181 308.561 194 308.561Z" fill="#F5F5F5"/>
<path d="M365.429 275.191C366.438 273.497 365.015 270.947 363.043 270.918C363.907 268.487 363.055 265.548 361.023 263.957C360.767 263.756 360.472 263.568 360.147 263.567C359.798 263.566 359.489 263.779 359.205 263.982C357.347 265.317 355.488 266.652 353.63 267.987C353.205 268.293 352.764 268.615 352.524 269.081C351.385 271.289 355.492 274.118 353.803 275.939C353.318 276.462 352.537 276.57 351.932 276.948C350.605 277.777 350.445 279.599 349.827 281.036C349.209 282.473 347.053 283.589 346.228 282.259C346.837 280.88 344.994 279.692 343.497 279.517C342.02 279.344 340.437 279.26 339.609 277.856C337.486 279.712 332.73 274.533 332.839 272.445C331.093 272.578 329.904 274.213 329.522 275.848C329.125 277.545 329.371 279.313 329.343 281.052C329.29 284.433 328.198 287.745 328.258 291.125C328.304 293.756 329.321 296.678 331.73 297.736C332.889 298.246 334.2 298.246 335.466 298.238C344.609 298.179 353.752 298.121 362.895 298.062C363.553 298.058 364.24 298.047 364.824 297.742C366.062 297.096 366.323 295.471 366.438 294.079C366.929 288.12 367.42 282.161 367.911 276.202C367.084 275.866 366.256 275.529 365.429 275.191Z" fill="#407BFF"/>
<path opacity="0.3" d="M365.429 275.191C366.438 273.497 365.015 270.947 363.043 270.918C363.907 268.487 363.055 265.548 361.023 263.957C360.767 263.756 360.472 263.568 360.147 263.567C359.798 263.566 359.489 263.779 359.205 263.982C357.347 265.317 355.488 266.652 353.63 267.987C353.205 268.293 352.764 268.615 352.524 269.081C351.385 271.289 355.492 274.118 353.803 275.939C353.318 276.462 352.537 276.57 351.932 276.948C350.605 277.777 350.445 279.599 349.827 281.036C349.209 282.473 347.053 283.589 346.228 282.259C346.837 280.88 344.994 279.692 343.497 279.517C342.02 279.344 340.437 279.26 339.609 277.856C337.486 279.712 332.73 274.533 332.839 272.445C331.093 272.578 329.904 274.213 329.522 275.848C329.125 277.545 329.371 279.313 329.343 281.052C329.29 284.433 328.198 287.745 328.258 291.125C328.304 293.756 329.321 296.678 331.73 297.736C332.889 298.246 334.2 298.246 335.466 298.238C344.609 298.179 353.752 298.121 362.895 298.062C363.553 298.058 364.24 298.047 364.824 297.742C366.062 297.096 366.323 295.471 366.438 294.079C366.929 288.12 367.42 282.161 367.911 276.202C367.084 275.866 366.256 275.529 365.429 275.191Z" fill="white"/>
<path d="M367.03 246.198H363.95H355.47H352.38H343.91H340.82H332.35H329.26H324.47L324.82 250.498L325.07 253.568L325.72 261.558L326.09 266.148L326.58 272.258L326.79 274.878L326.86 275.658L327.11 278.738L327.45 282.958L327.66 285.578L327.88 288.238L328.13 291.318L328.32 293.648L328.53 296.268L328.62 297.408H334.22H338.95H345.78H350.51H357.34H362.07H367.68L367.77 296.268L367.98 293.658L368.17 291.308L368.42 288.228L368.64 285.578L368.85 282.958L369.19 278.728L369.44 275.658L369.5 274.878L369.71 272.258L370.21 266.148L370.58 261.568L371.22 253.568L371.47 250.498L371.82 246.198H367.03ZM369.59 249.018L368.77 248.198H369.66L369.59 249.018ZM369.38 251.628L369.3 252.668L365.49 256.478L361.12 252.108L365.03 248.198H365.95L369.38 251.628ZM368.28 265.249L365.49 268.039L361.12 263.669L365.49 259.309L368.51 262.329L368.28 265.249ZM327.78 262.328L330.8 259.308L335.17 263.668L330.8 268.038L328.02 265.248L327.78 262.328ZM364.08 257.888L359.71 262.258L355.34 257.888L359.71 253.518L364.08 257.888ZM357.21 248.198H362.21L359.71 250.698L357.21 248.198ZM358.29 263.668L353.93 268.038L349.56 263.668L353.93 259.308L358.29 263.668ZM343.78 269.448L348.15 265.088L352.51 269.448L348.15 273.818L343.78 269.448ZM346.73 275.228L342.36 279.598L338 275.238L342.37 270.868L346.73 275.228ZM353.93 270.868L358.29 275.238L353.93 279.598L349.56 275.228L353.93 270.868ZM348.15 262.259L343.78 257.889L348.15 253.519L352.51 257.889L348.15 262.259ZM346.73 263.668L342.37 268.038L338 263.668L342.37 259.308L346.73 263.668ZM336.58 262.259L332.22 257.889L336.58 253.519L340.95 257.889L336.58 262.259ZM336.58 265.089L340.95 269.449L336.58 273.819L332.22 269.449L336.58 265.089ZM340.95 281.018L336.58 285.378L332.22 281.018L336.58 276.648L340.95 281.018ZM342.36 282.428L346.73 286.798L342.37 291.168L338 286.798L342.36 282.428ZM343.78 281.018L348.15 276.648L352.51 281.018L348.15 285.378L343.78 281.018ZM353.93 282.428L358.29 286.798L353.93 291.168L349.56 286.798L353.93 282.428ZM359.71 288.208L364.08 292.578L361.25 295.408H358.17L355.34 292.578L359.71 288.208ZM355.34 281.018L359.71 276.648L364.08 281.018L359.71 285.378L355.34 281.018ZM355.34 269.448L359.71 265.088L364.08 269.448L359.71 273.818L355.34 269.448ZM358.29 252.108L353.93 256.478L349.56 252.108L353.47 248.198H354.39L358.29 252.108ZM348.15 250.698L345.65 248.198H350.64L348.15 250.698ZM346.73 252.108L342.37 256.478L338 252.108L341.91 248.198H342.83L346.73 252.108ZM339.08 248.198L336.58 250.698L334.09 248.198H339.08ZM331.26 248.198L335.17 252.108L330.8 256.478L327 252.668L326.92 251.628L330.34 248.198H331.26ZM327.52 248.198L326.71 249.008L326.64 248.198H327.52ZM327.25 255.749L329.39 257.889L327.57 259.709L327.25 255.749ZM328.44 270.398L328.27 268.328L329.39 269.448L328.44 270.398ZM328.65 273.029L330.8 270.869L335.17 275.239L330.8 279.599L329.04 277.839L328.65 273.029ZM329.3 281.108L329.29 280.918L329.39 281.018L329.3 281.108ZM330.06 290.418L329.51 283.718L330.8 282.428L335.17 286.798L330.8 291.158L330.06 290.418ZM330.46 295.409L330.38 294.409L330.8 293.989L332.22 295.409H330.46ZM332.22 292.578L336.58 288.208L340.95 292.578L338.12 295.408H335.04L332.22 292.578ZM340.95 295.409L342.37 293.989L343.79 295.409H340.95ZM346.61 295.409L343.78 292.579L348.15 288.209L352.51 292.579L349.69 295.409H346.61ZM352.51 295.409L353.93 293.989L355.35 295.409H352.51ZM365.83 295.409H364.07L365.49 293.989L365.91 294.409L365.83 295.409ZM366.24 290.418L365.49 291.158L361.12 286.798L365.49 282.428L366.78 283.718L366.24 290.418ZM367.01 280.909L366.99 281.109L366.9 281.019L367.01 280.909ZM367.26 277.839L365.49 279.599L361.12 275.239L365.49 270.869L367.65 273.029L367.26 277.839ZM367.86 270.409L366.9 269.449L368.03 268.329L367.86 270.409ZM369.05 255.738L368.73 259.718L366.9 257.888L369.05 255.738Z" fill="#407BFF"/>
<g opacity="0.6">
<path d="M367.03 246.198H363.95H355.47H352.38H343.91H340.82H332.35H329.26H324.47L324.82 250.498L325.07 253.568L325.72 261.558L326.09 266.148L326.58 272.258L326.79 274.878L326.86 275.658L327.11 278.738L327.45 282.958L327.66 285.578L327.88 288.238L328.13 291.318L328.32 293.648L328.53 296.268L328.62 297.408H334.22H338.95H345.78H350.51H357.34H362.07H367.68L367.77 296.268L367.98 293.658L368.17 291.308L368.42 288.228L368.64 285.578L368.85 282.958L369.19 278.728L369.44 275.658L369.5 274.878L369.71 272.258L370.21 266.148L370.58 261.568L371.22 253.568L371.47 250.498L371.82 246.198H367.03ZM369.59 249.018L368.77 248.198H369.66L369.59 249.018ZM369.38 251.628L369.3 252.668L365.49 256.478L361.12 252.108L365.03 248.198H365.95L369.38 251.628ZM368.28 265.249L365.49 268.039L361.12 263.669L365.49 259.309L368.51 262.329L368.28 265.249ZM327.78 262.328L330.8 259.308L335.17 263.668L330.8 268.038L328.02 265.248L327.78 262.328ZM364.08 257.888L359.71 262.258L355.34 257.888L359.71 253.518L364.08 257.888ZM357.21 248.198H362.21L359.71 250.698L357.21 248.198ZM358.29 263.668L353.93 268.038L349.56 263.668L353.93 259.308L358.29 263.668ZM343.78 269.448L348.15 265.088L352.51 269.448L348.15 273.818L343.78 269.448ZM346.73 275.228L342.36 279.598L338 275.238L342.37 270.868L346.73 275.228ZM353.93 270.868L358.29 275.238L353.93 279.598L349.56 275.228L353.93 270.868ZM348.15 262.259L343.78 257.889L348.15 253.519L352.51 257.889L348.15 262.259ZM346.73 263.668L342.37 268.038L338 263.668L342.37 259.308L346.73 263.668ZM336.58 262.259L332.22 257.889L336.58 253.519L340.95 257.889L336.58 262.259ZM336.58 265.089L340.95 269.449L336.58 273.819L332.22 269.449L336.58 265.089ZM340.95 281.018L336.58 285.378L332.22 281.018L336.58 276.648L340.95 281.018ZM342.36 282.428L346.73 286.798L342.37 291.168L338 286.798L342.36 282.428ZM343.78 281.018L348.15 276.648L352.51 281.018L348.15 285.378L343.78 281.018ZM353.93 282.428L358.29 286.798L353.93 291.168L349.56 286.798L353.93 282.428ZM359.71 288.208L364.08 292.578L361.25 295.408H358.17L355.34 292.578L359.71 288.208ZM355.34 281.018L359.71 276.648L364.08 281.018L359.71 285.378L355.34 281.018ZM355.34 269.448L359.71 265.088L364.08 269.448L359.71 273.818L355.34 269.448ZM358.29 252.108L353.93 256.478L349.56 252.108L353.47 248.198H354.39L358.29 252.108ZM348.15 250.698L345.65 248.198H350.64L348.15 250.698ZM346.73 252.108L342.37 256.478L338 252.108L341.91 248.198H342.83L346.73 252.108ZM339.08 248.198L336.58 250.698L334.09 248.198H339.08ZM331.26 248.198L335.17 252.108L330.8 256.478L327 252.668L326.92 251.628L330.34 248.198H331.26ZM327.52 248.198L326.71 249.008L326.64 248.198H327.52ZM327.25 255.749L329.39 257.889L327.57 259.709L327.25 255.749ZM328.44 270.398L328.27 268.328L329.39 269.448L328.44 270.398ZM328.65 273.029L330.8 270.869L335.17 275.239L330.8 279.599L329.04 277.839L328.65 273.029ZM329.3 281.108L329.29 280.918L329.39 281.018L329.3 281.108ZM330.06 290.418L329.51 283.718L330.8 282.428L335.17 286.798L330.8 291.158L330.06 290.418ZM330.46 295.409L330.38 294.409L330.8 293.989L332.22 295.409H330.46ZM332.22 292.578L336.58 288.208L340.95 292.578L338.12 295.408H335.04L332.22 292.578ZM340.95 295.409L342.37 293.989L343.79 295.409H340.95ZM346.61 295.409L343.78 292.579L348.15 288.209L352.51 292.579L349.69 295.409H346.61ZM352.51 295.409L353.93 293.989L355.35 295.409H352.51ZM365.83 295.409H364.07L365.49 293.989L365.91 294.409L365.83 295.409ZM366.24 290.418L365.49 291.158L361.12 286.798L365.49 282.428L366.78 283.718L366.24 290.418ZM367.01 280.909L366.99 281.109L366.9 281.019L367.01 280.909ZM367.26 277.839L365.49 279.599L361.12 275.239L365.49 270.869L367.65 273.029L367.26 277.839ZM367.86 270.409L366.9 269.449L368.03 268.329L367.86 270.409ZM369.05 255.738L368.73 259.718L366.9 257.888L369.05 255.738Z" fill="white"/>
</g>
<path d="M323.388 249.982H372.904C373.812 249.982 374.547 249.246 374.547 248.339V246.058C374.547 245.15 373.811 244.415 372.904 244.415H323.388C322.48 244.415 321.745 245.151 321.745 246.058V248.339C321.745 249.246 322.481 249.982 323.388 249.982Z" fill="#407BFF"/>
<path d="M369.097 299.982H327.196C326.288 299.982 325.553 299.246 325.553 298.339V296.058C325.553 295.15 326.289 294.415 327.196 294.415H369.097C370.005 294.415 370.74 295.151 370.74 296.058V298.339C370.74 299.246 370.004 299.982 369.097 299.982Z" fill="#407BFF"/>
<path d="M147.55 97.167H160.401L156.976 133.96L177.297 137.011V139.574H134.497V137.011L143.265 133.96L147.55 97.167Z" fill="#263238"/>
<path d="M197.433 120.518C197.659 122.985 195.855 124.988 193.401 124.988H115.614C113.147 124.988 110.968 122.985 110.743 120.518L106.123 70.718C106.073 70.205 106.11 69.716 106.223 69.265C106.661 67.512 108.201 66.247 110.155 66.247H187.942C190.409 66.247 192.588 68.251 192.813 70.717L197.433 120.518Z" fill="#263238"/>
<path d="M115.614 122.484C114.434 122.484 113.345 121.479 113.237 120.29L108.616 70.487C108.594 70.258 108.606 70.056 108.652 69.875C108.825 69.181 109.4 68.752 110.154 68.752H187.941C189.121 68.752 190.209 69.757 190.318 70.946L194.939 120.749C194.984 121.239 194.847 121.688 194.555 122.009C194.357 122.225 193.996 122.485 193.4 122.485H115.614V122.484Z" fill="#407BFF"/>
<path opacity="0.6" d="M115.614 122.484C114.434 122.484 113.345 121.479 113.237 120.29L108.616 70.487C108.594 70.258 108.606 70.056 108.652 69.875C108.825 69.181 109.4 68.752 110.154 68.752H187.941C189.121 68.752 190.209 69.757 190.318 70.946L194.939 120.749C194.984 121.239 194.847 121.688 194.555 122.009C194.357 122.225 193.996 122.485 193.4 122.485H115.614V122.484Z" fill="white"/>
<path d="M100.343 299.982H94.217L83.21 146.735H91.337L100.343 299.982Z" fill="#263238"/>
<path opacity="0.4" d="M100.347 299.982H94.217L83.747 154.347L83.207 146.982H91.337L91.777 154.347L100.347 299.982Z" fill="white"/>
<path opacity="0.2" d="M91.777 153.982H83.747L83.207 146.982H91.337L91.777 153.982Z" fill="black"/>
<path d="M245.302 299.982H239.176L238.175 146.735H246.302L245.302 299.982Z" fill="#263238"/>
<path opacity="0.5" d="M246.307 146.982L246.147 171.707L245.307 299.982H239.177L238.337 171.707L238.177 146.982H246.307Z" fill="white"/>
<path opacity="0.2" d="M246.307 146.982L246.147 171.982H238.337L238.177 146.982H246.307Z" fill="black"/>
<path d="M310.343 299.982H304.217L293.21 146.735H301.337L310.343 299.982Z" fill="#263238"/>
<path opacity="0.5" d="M310.347 299.982H304.217L293.747 154.347L293.207 146.982H301.337L301.777 154.347L310.347 299.982Z" fill="white"/>
<path opacity="0.2" d="M301.777 153.982H293.747L293.207 146.982H301.337L301.777 153.982Z" fill="black"/>
<path d="M30.261 299.982H24.135L33.141 146.735H41.268L30.261 299.982Z" fill="#263238"/>
<path opacity="0.5" d="M41.267 146.982L40.727 154.347L30.257 299.982H24.137L32.697 154.347L33.137 146.982H41.267Z" fill="white"/>
<path opacity="0.2" d="M33.137 146.982H41.267L40.727 153.982H32.697L33.137 146.982Z" fill="black"/>
<path d="M305.617 150.573H28.86C27.666 150.573 26.698 149.605 26.698 148.411V142.897H307.78V148.41C307.78 149.605 306.811 150.573 305.617 150.573Z" fill="#407BFF"/>
<path opacity="0.6" d="M305.617 150.573H28.86C27.666 150.573 26.698 149.605 26.698 148.411V142.897H307.78V148.41C307.78 149.605 306.811 150.573 305.617 150.573Z" fill="white"/>
<path opacity="0.2" d="M307.779 142.897H26.698V146.735H307.779V142.897Z" fill="black"/>
<path d="M311.577 143.898H22.901C21.707 143.898 20.739 142.93 20.739 141.736C20.739 140.542 21.707 139.574 22.901 139.574H311.577C312.771 139.574 313.739 140.542 313.739 141.736C313.739 142.93 312.771 143.898 311.577 143.898Z" fill="#407BFF"/>
<path opacity="0.6" d="M311.577 143.898H22.901C21.707 143.898 20.739 142.93 20.739 141.736C20.739 140.542 21.707 139.574 22.901 139.574H311.577C312.771 139.574 313.739 140.542 313.739 141.736C313.739 142.93 312.771 143.898 311.577 143.898Z" fill="white"/>
<path d="M160.276 139.574L161.263 135.844H201.814L220.488 137.709L221.199 139.574H160.276Z" fill="#263238"/>
<path opacity="0.4" d="M201.814 135.844V139.574H160.276L161.263 135.844H201.814Z" fill="black"/>
<path d="M61.55 97.167H74.401L60.976 133.96L81.297 137.011V139.574H38.497V137.011L47.265 133.96L61.55 97.167Z" fill="#263238"/>
<path d="M99.167 70.162C98.732 67.67 96.383 65.647 93.916 65.647H91.916H26.129H24.129C22.175 65.647 20.743 66.924 20.454 68.695C20.38 69.151 20.384 69.644 20.477 70.162L29.33 120.46C29.765 122.952 32.114 124.975 34.581 124.975H36.581H102.368H104.368C106.822 124.975 108.455 122.952 108.02 120.46L99.167 70.162Z" fill="#263238"/>
<path opacity="0.2" d="M108.02 120.46C108.455 122.952 106.822 124.975 104.368 124.975H36.581C34.114 124.975 31.765 122.952 31.33 120.46L22.476 70.162C22.382 69.643 22.378 69.15 22.453 68.695C22.742 66.924 24.175 65.647 26.128 65.647H93.915C96.382 65.647 98.731 67.671 99.166 70.162L108.02 120.46Z" fill="white"/>
<path d="M36.368 122.445C35.188 122.445 34.014 121.43 33.804 120.229L24.95 69.928C24.909 69.697 24.904 69.493 24.934 69.31C25.048 68.609 25.587 68.176 26.341 68.176H94.128C95.308 68.176 96.482 69.191 96.692 70.392L105.546 120.693C105.632 121.188 105.534 121.642 105.269 121.965C105.089 122.184 104.75 122.445 104.154 122.445H36.368Z" fill="#407BFF"/>
<path opacity="0.6" d="M36.368 122.445C35.188 122.445 34.014 121.43 33.804 120.229L24.95 69.928C24.909 69.697 24.904 69.493 24.934 69.31C25.048 68.609 25.587 68.176 26.341 68.176H94.128C95.308 68.176 96.482 69.191 96.692 70.392L105.546 120.693C105.632 121.188 105.534 121.642 105.269 121.965C105.089 122.184 104.75 122.445 104.154 122.445H36.368Z" fill="#407BFF"/>
<path d="M229.55 97.167H242.401L228.976 133.96L249.297 137.011V139.574H206.497V137.011L215.265 133.96L229.55 97.167Z" fill="#263238"/>
<path d="M274.582 70.717C274.484 68.251 272.409 66.248 269.942 66.248H267.942H202.155H200.155C198.201 66.248 196.596 67.512 196.067 69.265C195.931 69.716 195.868 70.204 195.892 70.717L197.941 120.505C198.039 122.971 200.114 124.974 202.581 124.974H204.581H270.368H272.368C274.822 124.974 276.729 122.971 276.631 120.505L274.582 70.717Z" fill="#263238"/>
<path opacity="0.4" d="M276.631 120.505C276.729 122.971 274.822 124.974 272.368 124.974H204.581C202.114 124.974 200.039 122.971 199.941 120.505L197.892 70.717C197.868 70.204 197.931 69.716 198.067 69.265C198.596 67.512 200.201 66.248 202.155 66.248H269.942C272.409 66.248 274.484 68.251 274.582 70.717L276.631 120.505Z" fill="white"/>
<path d="M204.711 122.471C203.531 122.471 202.494 121.466 202.447 120.278L200.397 70.486C200.387 70.257 200.409 70.056 200.465 69.874C200.674 69.18 201.271 68.751 202.025 68.751H269.812C270.992 68.751 272.028 69.756 272.076 70.945L274.126 120.736C274.145 121.226 273.986 121.675 273.677 121.995C273.468 122.211 273.093 122.471 272.497 122.471H204.711Z" fill="#407BFF"/>
<path opacity="0.6" d="M204.711 122.471C203.531 122.471 202.494 121.466 202.447 120.278L200.397 70.486C200.387 70.257 200.409 70.056 200.465 69.874C200.674 69.18 201.271 68.751 202.025 68.751H269.812C270.992 68.751 272.028 69.756 272.076 70.945L274.126 120.736C274.145 121.226 273.986 121.675 273.677 121.995C273.468 122.211 273.093 122.471 272.497 122.471H204.711Z" fill="#407BFF"/>
<path opacity="0.4" d="M204.711 122.471C203.531 122.471 202.494 121.466 202.447 120.278L200.397 70.486C200.387 70.257 200.409 70.056 200.465 69.874C200.674 69.18 201.271 68.751 202.025 68.751H269.812C270.992 68.751 272.028 69.756 272.076 70.945L274.126 120.736C274.145 121.226 273.986 121.675 273.677 121.995C273.468 122.211 273.093 122.471 272.497 122.471H204.711Z" fill="black"/>
<path d="M266.448 74.047H216.681L216.64 73.119H266.407L266.448 74.047Z" fill="white"/>
<path d="M266.574 76.89H222.292L222.251 75.962H266.533L266.574 76.89Z" fill="white"/>
<path d="M266.7 79.733H238.711L238.67 78.805H266.659L266.7 79.733Z" fill="white"/>
<path d="M266.826 82.575H230.486L230.445 81.647H266.784L266.826 82.575Z" fill="white"/>
<path d="M266.951 85.418H242.846L242.805 84.49H266.91L266.951 85.418Z" fill="white"/>
<path d="M267.335 94.088H217.567L217.526 93.16H267.294L267.335 94.088Z" fill="white"/>
<path d="M267.461 96.931H223.178L223.137 96.0031H267.419L267.461 96.931Z" fill="white"/>
<path d="M267.586 99.773H239.598L239.557 98.845H267.545L267.586 99.773Z" fill="white"/>
<path d="M267.712 102.616H231.372L231.331 101.688H267.671L267.712 102.616Z" fill="white"/>
<path d="M267.838 105.459H243.732L243.691 104.531H267.797L267.838 105.459Z" fill="white"/>
<path d="M159.147 104.268H115.728L113.179 75.866H156.597L159.147 104.268Z" fill="#407BFF"/>
<path d="M159.147 104.268H115.728L113.179 75.866H156.597L159.147 104.268Z" fill="#407BFF"/>
<path d="M157.431 102.847H117.189L115.245 81.191H155.487L157.431 102.847Z" fill="#263238"/>
<path d="M148.666 85.359H118.899L118.815 84.427H148.583L148.666 85.359Z" fill="white"/>
<path d="M133.437 88.212H119.155L119.071 87.28H133.354L133.437 88.212Z" fill="white"/>
<path d="M137.4 91.065H119.411L119.327 90.133H137.316L137.4 91.065Z" fill="white"/>
<path d="M126.007 93.918H119.667L119.583 92.986H125.923L126.007 93.918Z" fill="white"/>
<path d="M124.029 96.771H119.923L119.84 95.84H123.945L124.029 96.771Z" fill="white"/>
<path d="M187.823 118.469H144.405L141.855 90.066H185.274L187.823 118.469Z" fill="#407BFF"/>
<path d="M187.823 118.469H144.405L141.855 90.066H185.274L187.823 118.469Z" fill="#407BFF"/>
<path d="M186.107 117.048H145.866L143.922 95.392H184.163L186.107 117.048Z" fill="#263238"/>
<path d="M177.343 99.559H147.575L147.492 98.628H177.259L177.343 99.559Z" fill="white"/>
<path d="M162.114 102.413H147.831L147.748 101.481H162.03L162.114 102.413Z" fill="white"/>
<path d="M166.076 105.266H148.087L148.004 104.334H165.993L166.076 105.266Z" fill="white"/>
<path d="M154.684 108.119H148.344L148.26 107.188H154.6L154.684 108.119Z" fill="white"/>
<path d="M152.705 110.972H148.6L148.516 110.041H152.622L152.705 110.972Z" fill="white"/>
<path opacity="0.6" d="M103.343 117.048H35.697L27.785 72.921H95.431L103.343 117.048Z" fill="white"/>
<path opacity="0.6" d="M54.349 115.318H36.745L30.229 78.981H47.834L54.349 115.318Z" fill="white"/>
<path opacity="0.6" d="M55.932 115.318H101.609L95.093 78.981H49.416L55.932 115.318Z" fill="white"/>
<g opacity="0.4">
<path d="M46.07 82.694H33.303L33.137 81.772H45.905L46.07 82.694Z" fill="black"/>
<path d="M41.077 85.44H33.795L33.63 84.518H40.912L41.077 85.44Z" fill="black"/>
<path d="M44.276 88.187H34.287L34.122 87.265H44.111L44.276 88.187Z" fill="black"/>
<path d="M41.12 90.933H34.78L34.614 90.011H40.954L41.12 90.933Z" fill="black"/>
<path d="M39.378 93.679H35.272L35.107 92.757H39.212L39.378 93.679Z" fill="black"/>
<path d="M48.532 96.425H35.765L35.599 95.5031H48.367L48.532 96.425Z" fill="black"/>
<path d="M43.539 99.171H36.257L36.092 98.249H43.374L43.539 99.171Z" fill="black"/>
<path d="M46.738 101.917H36.749L36.584 100.995H46.573L46.738 101.917Z" fill="black"/>
<path d="M43.582 104.663H37.242L37.076 103.742H43.416L43.582 104.663Z" fill="black"/>
<path d="M41.84 107.41H37.734L37.569 106.488H41.674L41.84 107.41Z" fill="black"/>
<path d="M44.566 110.156H38.227L38.061 109.234H44.401L44.566 110.156Z" fill="black"/>
<path d="M42.825 112.902H38.719L38.553 111.98H42.659L42.825 112.902Z" fill="black"/>
</g>
<g opacity="0.4">
<path d="M86.07 82.694H53.303L53.137 81.772H85.905L86.07 82.694Z" fill="black"/>
<path d="M81.077 85.44H53.795L53.63 84.518H80.912L81.077 85.44Z" fill="black"/>
<path d="M84.276 88.187H54.287L54.122 87.265H84.111L84.276 88.187Z" fill="black"/>
<path d="M81.12 90.933H54.78L54.614 90.011H80.954L81.12 90.933Z" fill="black"/>
<path d="M79.378 93.679H55.272L55.107 92.757H79.212L79.378 93.679Z" fill="black"/>
<path d="M88.532 96.425H55.765L55.599 95.5031H88.367L88.532 96.425Z" fill="black"/>
<path d="M83.539 99.171H56.257L56.092 98.249H83.374L83.539 99.171Z" fill="black"/>
<path d="M86.738 101.917H56.749L56.584 100.995H86.573L86.738 101.917Z" fill="black"/>
<path d="M83.582 104.663H57.242L57.076 103.742H83.416L83.582 104.663Z" fill="black"/>
<path d="M81.84 107.41H57.734L57.569 106.488H81.674L81.84 107.41Z" fill="black"/>
<path d="M84.566 110.156H58.227L58.061 109.234H84.401L84.566 110.156Z" fill="black"/>
<path d="M82.824 112.902H58.719L58.553 111.98H82.659L82.824 112.902Z" fill="black"/>
</g>
<path d="M229.807 36.95H259.873C261.548 36.95 262.906 35.592 262.906 33.917V3.85099C262.906 2.17599 261.548 0.817993 259.873 0.817993H229.807C228.132 0.817993 226.774 2.17599 226.774 3.85099V33.917C226.774 35.592 228.132 36.95 229.807 36.95Z" fill="#407BFF"/>
<path d="M248.982 33.74C248.982 33.74 247.136 43.916 233.685 48.509C233.685 48.509 241.333 41.124 241.333 33.74H248.982Z" fill="#407BFF"/>
<path opacity="0.9" d="M246.866 14.996V12.806L245.738 12.7C245.586 11.966 245.295 11.283 244.897 10.677L245.621 9.80199L244.073 8.25299L243.198 8.97699C242.592 8.57899 241.91 8.28799 241.176 8.13599L241.07 7.008H238.88L238.774 8.13599C238.04 8.28799 237.357 8.57899 236.751 8.97699L235.876 8.25299L234.328 9.80199L235.052 10.677C234.654 11.283 234.363 11.966 234.211 12.7L233.083 12.806V14.996L234.211 15.102C234.363 15.836 234.654 16.518 235.052 17.125L234.328 18L235.876 19.548L236.751 18.824C237.357 19.222 238.04 19.513 238.774 19.665L238.88 20.792H241.07L241.176 19.665C241.91 19.513 242.592 19.222 243.199 18.824L244.074 19.548L245.622 18L244.898 17.125C245.296 16.519 245.587 15.836 245.739 15.102L246.866 14.996ZM239.975 16.865C238.338 16.865 237.011 15.538 237.011 13.901C237.011 12.264 238.338 10.937 239.975 10.937C241.612 10.937 242.939 12.264 242.939 13.901C242.939 15.538 241.612 16.865 239.975 16.865Z" fill="white"/>
<path opacity="0.6" d="M255.741 21.177V19.461L254.858 19.378C254.739 18.803 254.511 18.268 254.199 17.793L254.767 17.107L253.554 15.894L252.868 16.462C252.393 16.15 251.858 15.922 251.283 15.803L251.2 14.92H249.484L249.401 15.803C248.826 15.922 248.291 16.15 247.816 16.462L247.13 15.894L245.917 17.107L246.485 17.793C246.173 18.268 245.945 18.803 245.826 19.378L244.942 19.461V21.177L245.826 21.26C245.945 21.835 246.173 22.37 246.485 22.845L245.917 23.531L247.13 24.744L247.816 24.176C248.291 24.488 248.826 24.716 249.401 24.835L249.484 25.718H251.2L251.283 24.835C251.858 24.716 252.393 24.488 252.868 24.176L253.553 24.744L254.766 23.531L254.198 22.845C254.51 22.37 254.738 21.835 254.857 21.26L255.741 21.177ZM250.341 22.641C249.058 22.641 248.018 21.601 248.018 20.318C248.018 19.035 249.058 17.995 250.341 17.995C251.624 17.995 252.664 19.035 252.664 20.318C252.664 21.602 251.624 22.641 250.341 22.641Z" fill="white"/>
<path opacity="0.4" d="M246.866 26.048V24.607L246.124 24.537C246.024 24.054 245.832 23.605 245.571 23.206L246.048 22.63L245.029 21.611L244.453 22.088C244.054 21.826 243.605 21.635 243.122 21.535L243.052 20.793H241.611L241.541 21.535C241.058 21.635 240.609 21.827 240.21 22.088L239.634 21.611L238.615 22.63L239.092 23.206C238.83 23.605 238.639 24.054 238.539 24.537L237.797 24.607V26.048L238.539 26.118C238.639 26.601 238.831 27.05 239.092 27.449L238.615 28.025L239.634 29.044L240.21 28.567C240.609 28.829 241.058 29.02 241.541 29.12L241.611 29.862H243.052L243.122 29.12C243.605 29.02 244.054 28.828 244.453 28.567L245.029 29.044L246.048 28.025L245.571 27.449C245.833 27.05 246.024 26.601 246.124 26.118L246.866 26.048ZM242.33 27.279C241.252 27.279 240.379 26.405 240.379 25.328C240.379 24.251 241.253 23.377 242.33 23.377C243.407 23.377 244.281 24.251 244.281 25.328C244.281 26.405 243.408 27.279 242.33 27.279Z" fill="white"/>
<path d="M238.06 289.198L230.094 288.105L228.99 269.169L236.944 270.271L238.06 289.198Z" fill="#EBB376"/>
<path opacity="0.2" d="M236.944 270.271L228.989 269.179L229.622 280.003L237.567 280.7L236.944 270.271Z" fill="black"/>
<path d="M229.493 287.145L238.493 286.584C238.806 286.55 239.087 286.777 239.121 287.09C239.121 287.093 239.122 287.096 239.122 287.099L240.005 294.199C240.053 294.975 239.469 295.646 238.693 295.704C235.55 295.849 234.042 295.761 230.079 295.977C227.648 296.122 222.857 296.639 219.503 296.314C216.149 295.989 216.56 292.682 218.008 292.524C221.443 292.133 225.993 289.609 228.143 287.693C228.519 287.366 228.995 287.173 229.493 287.145Z" fill="#263238"/>
<path d="M229.3 288.118V288.116C229.3 288.114 229.3 288.112 229.3 288.11C229.3 287.97 229.165 285.699 228.328 284.976C228.1 284.79 227.724 284.713 227.435 284.766C227.106 284.797 226.802 285.048 226.752 285.374C226.681 285.872 227.048 286.595 227.543 287.21C226.759 286.86 225.833 286.564 225.317 286.8C225.097 286.905 224.942 287.116 224.914 287.358C224.805 287.729 224.917 288.129 225.206 288.386C225.661 288.674 226.205 288.781 226.735 288.687C227.446 288.626 228.147 288.485 228.828 288.273C228.85 288.281 228.873 288.286 228.896 288.279C228.915 288.266 228.916 288.241 228.93 288.223C228.953 288.202 229.123 288.177 229.132 288.147C229.134 288.139 229.3 288.135 229.3 288.126V288.118ZM227.088 285.456C227.097 285.346 227.159 285.211 227.424 285.163L227.515 285.151C227.666 285.14 227.814 285.193 227.924 285.296C228.429 285.722 228.572 286.992 228.602 287.753C228.551 287.724 228.498 287.695 228.437 287.661C227.755 287.072 227.041 285.999 227.088 285.456ZM225.448 288.107C225.278 287.934 225.212 287.684 225.273 287.45C225.285 287.33 225.358 287.226 225.467 287.175C225.979 286.937 227.354 287.526 228.322 288.059C226.905 288.431 225.85 288.452 225.448 288.107Z" fill="#407BFF"/>
<path d="M237.74 177.879L239.684 165.703L284.344 163.032C284.344 163.032 289.093 188.369 285.444 195.119C278.93 207.17 243.826 201.088 233.554 202.273C239.694 227.383 239.094 276.453 239.094 276.453L224.424 277.573C224.424 277.573 213.136 224.697 210.854 199.573C209.314 182.62 223.361 183.042 237.74 177.879Z" fill="#263238"/>
<path opacity="0.2" d="M237.74 177.879L239.684 165.703L284.344 163.032C284.344 163.032 289.093 188.369 285.444 195.119C278.93 207.17 243.826 201.088 233.554 202.273C239.694 227.383 239.094 276.453 239.094 276.453L224.424 277.573C224.424 277.573 213.136 224.697 210.854 199.573C209.314 182.62 223.361 183.042 237.74 177.879Z" fill="black"/>
<path d="M205.069 74.701C205.275 76.578 204.474 78.205 203.28 78.337C202.086 78.469 200.95 77.053 200.744 75.177C200.538 73.3 201.339 71.673 202.533 71.541C203.727 71.409 204.862 72.824 205.069 74.701Z" stroke="#263238" stroke-width="0.5" stroke-miterlimit="10"/>
<path d="M205.101 84.374C205.291 84.802 205.493 85.217 205.719 85.609C207.049 87.984 209.032 89.789 211.3 90.905C211.894 91.202 212.512 91.451 213.141 91.653C216.466 92.71 220.147 92.389 223.188 90.406C224.435 89.61 225.587 88.518 226.549 87.128C230.373 81.689 229.34 76.333 228.318 67.142C228.128 65.159 227.487 63.247 226.418 61.572C222.701 55.658 214.887 53.889 208.985 57.606C200.671 62.76 201.74 76.512 205.101 84.374Z" fill="#E4897B"/>
<path opacity="0.2" d="M211.3 90.905C211.894 91.202 212.512 91.451 213.141 91.653C216.466 92.71 220.147 92.389 223.188 90.406C222.25 88.755 221.038 87.592 221.038 87.592C221.038 87.592 215.456 87.675 211.3 90.905Z" fill="black"/>
<path d="M235.394 93.344C233.818 99.284 223.63 104.049 223.63 104.049C223.63 104.049 216.756 106.226 216.802 103.608C219.875 100.815 220.503 98.133 219.863 95.634C219.488 94.179 218.678 92.794 217.672 91.479C217.151 90.783 216.565 90.116 215.965 89.472L221.996 73.427C224.135 80.062 229.004 91.663 235.394 93.344Z" fill="#E4897B"/>
<path d="M206.391 64.237C206.391 64.237 203.814 72.926 212.722 79.171C212.722 79.171 216.469 87.197 218.555 88.186C220.641 89.176 225.362 88.582 226.96 88.186C228.558 87.79 236.772 80.962 234.397 64.93C232.022 48.898 218.555 53.969 218.555 53.969L206.391 64.237Z" fill="#263238"/>
<path d="M213.933 75.022C213.724 77.095 212.881 78.734 211.588 79.579C209.867 80.679 208.208 78.273 208.012 75.491C207.855 73.023 208.533 69.395 210.594 69.51C212.654 69.626 214.164 72.465 213.933 75.022Z" fill="#E4897B"/>
<path d="M224.076 53.239C224.076 53.239 214.19 50.527 206.472 54.615C206.472 54.615 207.989 53.594 207.527 52.357C207.065 51.12 203.571 55.662 203.571 55.662C203.571 55.662 204.758 51.318 204.033 50.923C203.308 50.527 198.758 57.319 201.066 60.615C201.066 60.615 196.674 57.582 197.452 59.956C198.231 62.33 198.231 66.352 208.385 64.374C218.539 62.396 224.076 53.239 224.076 53.239Z" fill="#263238"/>
<path d="M200.743 75.176L207.99 72.154" stroke="#263238" stroke-width="0.5" stroke-miterlimit="10"/>
<path d="M215.665 96.884C215.665 96.884 222.362 88.619 233.044 88.727L239.571 94.178L215.665 96.884Z" fill="#407BFF"/>
<path opacity="0.5" d="M215.665 96.884C215.665 96.884 222.362 88.619 233.044 88.727L239.571 94.178L215.665 96.884Z" fill="white"/>
<path d="M175.267 131.127L168.014 127.824C168.014 127.824 161.948 126.693 159.443 127.258C156.938 127.824 151.399 135.346 151.531 136.269C151.663 137.192 161.133 139.434 161.343 139.434C161.553 139.434 165.662 137.106 165.662 137.106L172.367 139.434L175.267 131.127Z" fill="#E4897B"/>
<path d="M240.814 277.144L223.184 278.304L221.674 270.754L241.044 269.854L240.814 277.144Z" fill="#407BFF"/>
<path opacity="0.2" d="M240.814 277.144L223.184 278.304L221.674 270.754L241.044 269.854L240.814 277.144Z" fill="white"/>
<path d="M219.683 289.127L211.664 289.717L206.64 271.426L214.649 270.847L219.683 289.127Z" fill="#EBB376"/>
<path d="M210.579 289.99C210.579 289.982 210.445 289.976 210.444 289.967L210.3 289.96V289.958L210.442 289.956C210.413 289.836 210.035 287.591 209.061 287.057C208.799 286.922 208.528 286.909 208.256 287.022C207.941 287.121 207.752 287.421 207.771 287.75C207.806 288.251 208.343 288.878 208.955 289.377C208.115 289.199 207.162 289.099 206.707 289.438C206.514 289.587 206.413 289.824 206.436 290.067C206.406 290.452 206.603 290.82 206.939 291.012C207.443 291.199 208 291.19 208.499 290.987C209.182 290.779 209.839 290.496 210.461 290.145C210.484 290.148 210.509 290.148 210.529 290.136C210.545 290.12 210.541 290.094 210.551 290.074C210.568 290.05 210.577 290.022 210.579 289.99ZM208.172 287.752C208.158 287.643 208.19 287.498 208.44 287.396L208.527 287.365C208.672 287.323 208.828 287.343 208.957 287.422C209.54 287.734 209.944 288.946 210.132 289.684C210.076 289.666 210.019 289.649 209.952 289.629C209.161 289.194 208.24 288.293 208.172 287.752ZM207.12 290.686C206.918 290.552 206.801 290.322 206.812 290.08C206.798 289.961 206.849 289.844 206.945 289.771C207.396 289.432 208.864 289.721 209.922 290.041C208.613 290.7 207.585 290.94 207.12 290.686Z" fill="#407BFF"/>
<path opacity="0.2" d="M214.649 270.847L206.641 271.436L209.515 281.891L217.431 280.918L214.649 270.847Z" fill="black"/>
<path d="M203.923 280.6L218.043 276.45C218.043 276.45 209.613 228.87 201.063 212.37C201.703 212.16 202.553 211.89 203.603 211.58C205.493 211.01 208.003 210.3 210.953 209.48C231.473 203.79 273.063 193.12 273.063 193.12L254.063 175.39C254.063 175.39 178.383 186.93 176.813 206.87C176.064 216.46 203.923 280.6 203.923 280.6Z" fill="#263238"/>
<path d="M219.865 276.763L202.864 281.57L199.814 274.5L218.572 269.585L219.865 276.763Z" fill="#407BFF"/>
<path opacity="0.2" d="M219.865 276.763L202.864 281.57L199.814 274.5L218.572 269.585L219.865 276.763Z" fill="white"/>
<path d="M210.876 288.903L219.561 286.479C219.86 286.381 220.182 286.544 220.28 286.843C220.281 286.846 220.282 286.849 220.283 286.852L222.626 293.612C222.835 294.361 222.403 295.139 221.656 295.357C218.612 296.153 217.118 296.382 213.288 297.418C210.94 298.066 206.362 299.57 203.014 299.951C199.665 300.332 199.378 297.012 200.762 296.556C204.041 295.458 207.965 292.041 209.668 289.72C209.97 289.322 210.395 289.034 210.876 288.903Z" fill="#263238"/>
<path d="M205.294 104.946C205.294 104.946 217.938 90.786 234.825 92.246C251.712 93.707 268.639 106.754 277.055 127.264C285.47 147.773 288.006 178.757 288.006 178.757C288.006 178.757 260.675 186.582 232.888 179.45C232.888 179.45 225.679 142.697 205.294 104.946Z" fill="#407BFF"/>
<path opacity="0.6" d="M205.294 104.946C205.294 104.946 217.938 90.786 234.825 92.246C251.712 93.707 268.639 106.754 277.055 127.264C285.47 147.773 288.006 178.757 288.006 178.757C288.006 178.757 260.675 186.582 232.888 179.45C232.888 179.45 225.679 142.697 205.294 104.946Z" fill="white"/>
<path d="M205.294 104.946C201.028 109.376 188.839 129.685 185.368 130.446C181.797 131.229 176.848 128.082 172.892 129.275C168.936 130.468 164.874 134.066 165.79 136.373C166.706 138.68 175.998 144.835 187.525 145.169C197.396 145.454 218.195 120.877 218.195 120.877C218.197 111.377 205.294 104.946 205.294 104.946Z" fill="#407BFF"/>
<path opacity="0.5" d="M205.294 104.946C201.028 109.376 188.839 129.685 185.368 130.446C181.797 131.229 176.848 128.082 172.892 129.275C168.936 130.468 164.874 134.066 165.79 136.373C166.706 138.68 175.998 144.835 187.525 145.169C197.396 145.454 218.195 120.877 218.195 120.877C218.197 111.377 205.294 104.946 205.294 104.946Z" fill="white"/>
<path d="M287.04 185.56C258.36 191.1 230.23 179.76 230.23 179.76C230.23 179.76 230.16 177.7 229.8 174.49V174.48C229.67 173.26 229.49 171.87 229.27 170.37C229.06 169.01 228.81 167.56 228.51 166.05C227.72 162.03 226.56 157.59 224.88 153.42C223.29 149.47 222.05 146.22 221.1 143.55C220.96 143.17 220.83 142.8 220.71 142.44C220.3 141.27 219.95 140.22 219.65 139.29C217.6 132.93 217.88 131.72 217.88 131.72C225.14 132.74 225.68 117.79 215.97 106.67C212.4 102.59 207.99 102.35 207.99 102.35C207.99 102.35 207 100.77 217.24 95C222.76 91.89 228.94 94.18 233.51 94.18C240.85 94.18 241.95 93.14 241.95 93.14C253.95 93.12 268.43 108.97 277.78 127.8C278.25 128.74 278.71 129.69 279.15 130.65C279.61 131.64 280.05 132.64 280.48 133.64C283.76 141.33 286.11 149.28 287.04 156.68C287.14 157.49 287.24 158.27 287.32 159.03C287.45 160.11 287.56 161.14 287.67 162.13C287.8 163.35 287.91 164.51 288.01 165.6C289.77 184.8 287.04 185.56 287.04 185.56Z" fill="#407BFF"/>
<path opacity="0.3" d="M221.1 143.55L232.91 153.2L228.51 166.05C227.72 162.03 226.56 157.59 224.88 153.42C223.29 149.47 222.05 146.22 221.1 143.55Z" fill="white"/>
<path opacity="0.3" d="M239.57 133.71L256.77 153.08L253.21 169.82L232.91 153.2L239.57 133.71Z" fill="white"/>
<path opacity="0.3" d="M261.72 129.83L277.66 148.01L273.06 171.42L256.77 153.08L261.72 129.83Z" fill="white"/>
<path opacity="0.3" d="M287.32 159.03L277.66 148.01L280.48 133.64C283.76 141.33 286.11 149.28 287.04 156.68C287.14 157.49 287.24 158.27 287.32 159.03Z" fill="white"/>
<g opacity="0.3">
<path d="M279.15 130.65L276.1 143.22L260.57 126.5L255.59 148.61L238.26 127.95L231.84 150.04L220.71 142.44C220.3 141.27 219.95 140.22 219.65 139.29L230.69 146.83L237.39 123.8L254.52 144.23L259.45 122.36L275.04 139.13L277.78 127.8C278.25 128.74 278.71 129.69 279.15 130.65Z" fill="white"/>
</g>
<g opacity="0.3">
<path d="M288.01 165.6L280.63 157L275.63 181.56L259.22 163.51L255.64 178.14L235.24 160.6L229.8 174.48C229.67 173.26 229.49 171.87 229.27 170.37L234.41 157.24L254.47 174.49L258.17 159.39L274.46 177.3L279.48 152.6L287.67 162.13C287.8 163.35 287.91 164.51 288.01 165.6Z" fill="white"/>
</g>
<path d="M215.261 198.439H295.182C297.943 198.439 300.182 200.678 300.182 203.439V210.128H210.261V203.439C210.261 200.678 212.5 198.439 215.261 198.439Z" fill="#407BFF"/>
<path opacity="0.2" d="M215.261 198.439H295.182C297.943 198.439 300.182 200.678 300.182 203.439V210.128H210.261V203.439C210.261 200.678 212.5 198.439 215.261 198.439Z" fill="black"/>
<path d="M297.253 276.677L268.44 273.845V233.353H257.021V273.834L228.092 276.677C225.22 276.959 223.031 279.374 223.031 282.26V286.587H261.614H263.731H302.314V282.26C302.314 279.375 300.125 276.96 297.253 276.677Z" fill="#263238"/>
<path opacity="0.2" d="M297.253 276.677L268.44 273.845V233.353H257.021V273.834L228.092 276.677C225.22 276.959 223.031 279.374 223.031 282.26V286.587H261.614H263.731H302.314V282.26C302.314 279.375 300.125 276.96 297.253 276.677Z" fill="white"/>
<path d="M226.08 299.419C230.203 299.419 233.546 296.076 233.546 291.953C233.546 287.83 230.203 284.487 226.08 284.487C221.957 284.487 218.614 287.83 218.614 291.953C218.614 296.076 221.957 299.419 226.08 299.419Z" fill="#263238"/>
<path d="M299.265 299.419C303.388 299.419 306.731 296.076 306.731 291.953C306.731 287.83 303.388 284.487 299.265 284.487C295.142 284.487 291.799 287.83 291.799 291.953C291.799 296.076 295.142 299.419 299.265 299.419Z" fill="#263238"/>
<path d="M266.273 242.056H259.187C256.904 242.056 255.054 240.206 255.054 237.923V205.99H270.406V237.923C270.407 240.206 268.556 242.056 266.273 242.056Z" fill="#263238"/>
<path opacity="0.3" d="M266.273 242.056H259.187C256.904 242.056 255.054 240.206 255.054 237.923V205.99H270.406V237.923C270.407 240.206 268.556 242.056 266.273 242.056Z" fill="white"/>
<path d="M245.644 205.991C245.644 205.991 259.955 160.31 262.401 93.654C262.693 85.697 269.258 79.407 277.22 79.407H303.801C311.966 79.407 318.599 85.997 318.634 94.162C318.738 118.377 317.046 167.88 303.387 208.118L245.644 205.991Z" fill="#407BFF"/>
<path opacity="0.2" d="M245.644 205.991C245.644 205.991 259.955 160.31 262.401 93.654C262.693 85.697 269.258 79.407 277.22 79.407H303.801C311.966 79.407 318.599 85.997 318.634 94.162C318.738 118.377 317.046 167.88 303.387 208.118L245.644 205.991Z" fill="black"/>
<path d="M254.712 205.419C254.712 205.419 268.36 156.863 270.616 95.378C270.885 88.038 276.941 82.236 284.286 82.236H308.805C316.336 82.236 322.455 88.315 322.488 95.846C322.584 118.183 321.023 168.303 308.424 205.418H254.712V205.419Z" fill="#263238"/>
<path opacity="0.3" d="M308.42 205.42H254.71C254.71 205.42 268.36 156.86 270.62 95.3801C270.89 88.0401 276.94 82.2401 284.29 82.2401H308.8C316.34 82.2401 322.45 88.3201 322.49 95.8501C322.58 118.18 321.02 168.3 308.42 205.42Z" fill="white"/>
<path d="M265.229 170.12C265.229 170.12 236.093 164.226 207.964 167.08C179.835 169.934 221.199 206.69 221.199 206.69H227.005C227.005 206.69 205.086 183.385 206.307 177.582C207.528 171.78 262.731 179.428 262.731 179.428L265.229 170.12Z" fill="#263238"/>
<path opacity="0.3" d="M265.229 170.12C265.229 170.12 236.093 164.226 207.964 167.08C179.835 169.934 221.199 206.69 221.199 206.69H227.005C227.005 206.69 205.086 183.385 206.307 177.582C207.528 171.78 262.731 179.428 262.731 179.428L265.229 170.12Z" fill="white"/>
<path opacity="0.2" d="M308.42 205.42H260.71C260.71 205.42 274.36 156.86 276.62 95.3801C276.89 88.0401 282.94 82.2401 290.29 82.2401H308.8C316.34 82.2401 322.45 88.3201 322.49 95.8501C322.58 118.18 321.02 168.3 308.42 205.42Z" fill="black"/>
<path d="M209.066 204.284H307.377C308.488 204.284 309.388 205.184 309.388 206.295V208.117C309.388 209.228 308.488 210.128 307.377 210.128H209.066C207.955 210.128 207.055 209.228 207.055 208.117V206.295C207.055 205.184 207.956 204.284 209.066 204.284Z" fill="#263238"/>
<path opacity="0.6" d="M209.066 204.284H307.377C308.488 204.284 309.388 205.184 309.388 206.295V208.117C309.388 209.228 308.488 210.128 307.377 210.128H209.066C207.955 210.128 207.055 209.228 207.055 208.117V206.295C207.055 205.184 207.956 204.284 209.066 204.284Z" fill="white"/>
</svg>
