<svg width="68" height="63" viewBox="0 0 68 63" fill="none" xmlns="http://www.w3.org/2000/svg">
<path fill-rule="evenodd" clip-rule="evenodd" d="M31.9546 22.9499L34.2745 20.6421L37.8867 24.2344V27.5997L34.2745 24.0081L31.9458 26.3232V23.535C31.9458 23.3341 31.9478 23.1389 31.9546 22.9499ZM28.0616 23.535C28.0616 16.8297 32.4103 18.586 34.2745 13.804C35.8786 18.4573 40.4872 16.8297 40.4872 23.535V36.4479C39.6471 35.8026 38.7424 35.1909 37.8884 34.5791V23.535C37.8884 23.4267 37.8879 23.321 37.8867 23.2178V22.4985L37.8459 22.4586C37.7441 21.459 37.4191 20.7198 36.4532 19.99C35.7043 19.4249 34.9546 18.9574 34.2496 18.3257C34.2071 18.3648 34.1632 18.4034 34.1194 18.4418C33.3937 19.079 32.6086 19.5492 31.8677 20.1403C30.7485 21.0357 30.6604 22.1505 30.6604 23.535V34.5791C29.8067 35.1909 28.9026 35.8026 28.0616 36.4479V28.1473H24.2253V34.0021L20.0626 38.1414L24.2253 42.2813V48.1354H26.8919C19.3882 39.2563 33.1131 37.3096 34.2745 32.2973C35.4362 37.3096 49.1606 39.2563 41.6576 48.1354H44.3238V42.2808L48.4866 38.1414L44.3238 34.0021V28.1473H41.7731V25.7676H46.7162V33.0161L51.87 38.1414L46.7162 43.2668V50.5154H39.4276L34.2745 55.6409L29.1207 50.5154H21.8324V43.2668L16.6785 38.1414L21.8324 33.0161V25.7676H28.0616V23.535ZM52.3789 50.7454C51.376 52.1076 52.4507 50.1742 48.6781 53.9261C44.9045 57.6775 33.5368 62.8688 25.3097 60.4783C27.1239 61.2368 29.0575 61.7958 31.0863 62.1215C43.0178 64.0377 54.3425 57.284 58.5671 46.5245C56.7967 48.115 54.6907 49.527 52.3789 50.7454C55.7002 46.235 58.5991 40.2367 60.2445 34.1668C59.9312 29.816 58.826 25.2658 57.0431 21.0948C51.5899 15.4814 43.86 10.9465 37.0247 8.95629C29.2233 10.7425 21.3225 14.6892 16.2961 19.0735C20.0529 14.4784 24.9261 10.4778 28.2059 7.86392C17.0837 8.48321 7.49863 16.7117 5.64981 28.0978C4.67008 34.132 6.03344 40.0041 9.07298 44.7968C7.904 36.4771 8.32232 26.9182 14.9897 20.2877C15.3994 19.8805 15.8356 19.4751 16.2961 19.0735C13.1894 23.594 11.5223 28.1177 10.6661 33.3923C9.80973 38.6657 10.4388 44.8908 13.1369 49.66C16.5196 52.771 20.8299 54.9587 25.7193 55.7441C33.3324 56.9669 44.1582 55.0782 52.3789 50.7454Z" fill="url(#paint0_linear_120_431)"/>
<path fill-rule="evenodd" clip-rule="evenodd" d="M31.9546 22.95L34.2745 20.6421L37.8867 24.2344V27.5997L34.2745 24.0081L31.9458 26.3232V23.535C31.9458 23.3342 31.9478 23.1389 31.9546 22.95ZM28.0616 23.535C28.0616 16.8297 32.4103 18.5861 34.2745 13.804C35.8787 18.4574 40.4872 16.8297 40.4872 23.535V36.4479C39.6471 35.8027 38.7424 35.1909 37.8884 34.5792V23.535C37.8884 23.4267 37.8879 23.321 37.8867 23.2178V22.4985L37.8459 22.4587C37.7441 21.4591 37.4191 20.7198 36.4533 19.99C35.7043 19.4249 34.9546 18.9574 34.2496 18.3257C34.2071 18.3648 34.1632 18.4034 34.1194 18.4418C33.3937 19.0791 32.6086 19.5492 31.8677 20.1404C30.7485 21.0358 30.6604 22.1505 30.6604 23.535V34.5792C29.8067 35.1909 28.9026 35.8027 28.0616 36.4479V28.1473H24.2253V34.0021L20.0627 38.1414L24.2253 42.2814V48.1354H26.8919C19.3882 39.2563 33.1131 37.3096 34.2745 32.2973C35.4362 37.3096 49.1606 39.2563 41.6576 48.1354H44.3238V42.2809L48.4866 38.1414L44.3238 34.0021V28.1473H41.7731V25.7676H46.7162V33.0161L51.87 38.1414L46.7162 43.2669V50.5154H39.4276L34.2745 55.6409L29.1207 50.5154H21.8324V43.2669L16.6785 38.1414L21.8324 33.0161V25.7676H28.0616V23.535ZM37.0247 8.95631C41.0117 8.87374 43.7563 7.81489 46.8537 7.99096C44.8483 6.67977 42.6547 5.77319 40.2967 5.39458C36.1912 4.73571 32.0516 5.75158 28.2059 7.86394C29.9246 7.76899 31.295 8.5267 32.7549 8.7613C34.2152 8.99566 35.7973 8.59883 37.0247 8.95631C29.2233 10.7425 21.3225 14.6892 16.2961 19.0735C13.1894 23.594 10.9982 28.6654 10.2307 33.3923C9.2852 39.2138 10.4388 44.8909 13.1369 49.6601C16.5196 52.7711 20.8299 54.9587 25.7193 55.7441C33.3324 56.9669 44.1582 55.0782 52.3789 50.7454C55.7002 46.2351 58.5991 40.2367 60.2445 34.1668C60.425 36.6748 59.5967 39.3234 59.2668 41.3527C58.9378 43.3825 59.2067 44.8964 58.5671 46.5246C61.4323 43.9508 63.4184 40.91 63.9778 37.4645C64.5517 33.9336 63.5678 30.3372 61.5659 26.9233C60.8878 29.2137 60.679 31.6986 60.2445 34.1668C59.9312 29.816 58.826 25.2658 57.0431 21.0948C51.5899 15.4814 43.86 10.9465 37.0247 8.95631Z" fill="url(#paint1_linear_120_431)"/>
<path fill-rule="evenodd" clip-rule="evenodd" d="M31.9546 22.95L34.2745 20.6421L37.8867 24.2344V27.5997L34.2745 24.0081L31.9458 26.3233V23.535C31.9458 23.3342 31.9478 23.1389 31.9546 22.95ZM28.0616 23.535C28.0616 16.8297 32.4103 18.5861 34.2745 13.804C35.8787 18.4574 40.4872 16.8297 40.4872 23.535V36.448C39.6471 35.8027 38.7424 35.1909 37.8884 34.5792V23.535C37.8884 23.4267 37.8879 23.3211 37.8867 23.2178V22.4985L37.8459 22.4587C37.7441 21.4591 37.4191 20.7198 36.4533 19.99C35.7043 19.4249 34.9546 18.9574 34.2496 18.3257C34.2071 18.3648 34.1632 18.4035 34.1194 18.4418C33.3937 19.0791 32.6086 19.5492 31.8677 20.1404C30.7485 21.0358 30.6604 22.1505 30.6604 23.535V34.5792C29.8067 35.1909 28.9026 35.8027 28.0616 36.448V28.1474H24.2253V34.0021L20.0627 38.1414L24.2253 42.2814V48.1354H26.8919C19.3882 39.2563 33.1131 37.3096 34.2745 32.2973C35.4362 37.3096 49.1606 39.2563 41.6576 48.1354H44.3238V42.2809L48.4866 38.1414L44.3238 34.0021V28.1474H41.7731V25.7676H46.7162V33.0161L51.87 38.1414L46.7162 43.2669V50.5154H39.4276L34.2745 55.6409L29.1207 50.5154H21.8324V43.2669L16.6785 38.1414L21.8324 33.0161V25.7676H28.0616V23.535ZM37.0247 8.95632C35.7973 8.59884 34.5995 8.32344 33.4486 8.13887C31.6797 7.85473 29.9246 7.769 28.2059 7.86396C23.638 10.3746 19.4846 14.4337 16.2961 19.0735C13.1894 23.594 10.9982 28.6654 10.2307 33.3923C9.2852 39.2138 10.4388 44.8909 13.1369 49.6601C16.5196 52.7711 20.8299 54.9587 25.7193 55.7441C33.3324 56.9669 44.1582 55.0782 52.3789 50.7454C54.6907 49.527 56.7967 48.115 58.5671 46.5246C59.2067 44.8965 59.6836 43.1756 59.9749 41.3799C60.3427 39.1165 60.425 36.6748 60.2445 34.1668C59.9312 29.816 58.826 25.2659 57.0431 21.0948C51.5899 15.4814 43.86 10.9465 37.0247 8.95632Z" fill="url(#paint2_linear_120_431)"/>
<mask id="mask0_120_431" style="mask-type:luminance" maskUnits="userSpaceOnUse" x="9" y="7" width="53" height="54">
<path d="M9.04852 7.95792H61.686V60.4927H9.04852V7.95792Z" fill="white"/>
</mask>
<g mask="url(#mask0_120_431)">
<mask id="mask1_120_431" style="mask-type:luminance" maskUnits="userSpaceOnUse" x="9" y="7" width="53" height="54">
<path fill-rule="evenodd" clip-rule="evenodd" d="M31.9546 22.9502L34.2745 20.6423L37.8866 24.2346V27.5999L34.2745 24.0083L31.9458 26.3234V23.5352C31.9458 23.3344 31.9477 23.1391 31.9546 22.9502ZM28.0616 23.5352C28.0616 16.8299 32.4103 18.5863 34.2745 13.8042C35.8786 18.4575 40.4871 16.8299 40.4871 23.5352V36.4481C39.6471 35.8029 38.7423 35.1911 37.8884 34.5793V23.5352C37.8884 23.4269 37.8879 23.3212 37.8866 23.218V22.4987L37.8459 22.4589C37.744 21.4593 37.419 20.72 36.4532 19.9902C35.7042 19.4251 34.9546 18.9576 34.2496 18.3259C34.2071 18.365 34.1631 18.4036 34.1194 18.442C33.3936 19.0793 32.6085 19.5494 31.8676 20.1405C30.7485 21.036 30.6603 22.1507 30.6603 23.5352V34.5793C29.8066 35.1911 28.9026 35.8029 28.0616 36.4481V28.1475H24.2252V34.0023L20.0626 38.1416L24.2252 42.2816V48.1356H26.8919C19.3881 39.2565 33.1131 37.3098 34.2745 32.2975C35.4361 37.3098 49.1606 39.2565 41.6576 48.1356H44.3237V42.2811L48.4866 38.1416L44.3237 34.0023V28.1475H41.7731V25.7678H46.7161V33.0163L51.8699 38.1416L46.7161 43.2671V50.5156H39.4275L34.2745 55.6411L29.1207 50.5156H21.8323V43.2671L16.6785 38.1416L21.8323 33.0163V25.7678H28.0616V23.5352ZM25.3097 60.4786C20.077 58.2882 15.8348 54.4275 13.1369 49.6603C16.5195 52.7713 20.8299 54.9589 25.7192 55.7443C33.3323 56.9671 44.1582 55.0784 52.3789 50.7456C55.7002 46.2353 58.5991 40.2369 60.2445 34.167C59.9312 29.8162 58.8259 25.266 57.043 21.095C58.6159 23.3722 60.3788 24.8986 61.5658 26.9235C62.0743 21.0177 60.992 15.6096 57.4863 12.1229C54.8387 9.49006 51.0885 8.23158 46.8536 7.99115C50.3376 11.0344 53.9798 15.7997 57.043 21.095C51.5898 15.4816 43.86 10.9467 37.0246 8.95651C29.2232 10.7427 21.3224 14.6894 16.2961 19.0737C13.1894 23.5942 10.9982 28.6655 10.2307 33.3925C9.28515 39.214 10.4387 44.891 13.1369 49.6603C11.5723 48.2204 10.206 46.584 9.07294 44.7971C10.2165 48.3037 12.1889 51.6012 14.9896 54.3865C17.9693 57.3496 21.5317 59.3801 25.3097 60.4786Z" fill="white"/>
</mask>
<g mask="url(#mask1_120_431)">
<path d="M-14.9396 23.3514L24.5837 84.4605L86.0868 45.1179L46.5635 -15.9911L-14.9396 23.3514Z" fill="url(#paint3_linear_120_431)"/>
</g>
</g>
<mask id="mask2_120_431" style="mask-type:luminance" maskUnits="userSpaceOnUse" x="9" y="8" width="52" height="49">
<path d="M9.86121 8.95267H60.2481V56.1407H9.86121V8.95267Z" fill="white"/>
</mask>
<g mask="url(#mask2_120_431)">
<mask id="mask3_120_431" style="mask-type:luminance" maskUnits="userSpaceOnUse" x="9" y="8" width="52" height="49">
<path fill-rule="evenodd" clip-rule="evenodd" d="M31.9546 22.95L34.2745 20.6421L37.8867 24.2344V27.5997L34.2745 24.0081L31.9458 26.3233V23.535C31.9458 23.3342 31.9478 23.1389 31.9546 22.95ZM28.0616 23.535C28.0616 16.8297 32.4103 18.5861 34.2745 13.804C35.8787 18.4574 40.4872 16.8297 40.4872 23.535V36.448C39.6471 35.8027 38.7424 35.1909 37.8884 34.5792V23.535C37.8884 23.4267 37.8879 23.3211 37.8867 23.2178V22.4985L37.8459 22.4587C37.7441 21.4591 37.4191 20.7198 36.4533 19.99C35.7043 19.4249 34.9546 18.9574 34.2496 18.3257C34.2071 18.3648 34.1632 18.4035 34.1194 18.4418C33.3937 19.0791 32.6086 19.5493 31.8677 20.1404C30.7485 21.0358 30.6604 22.1505 30.6604 23.535V34.5792C29.8067 35.1909 28.9026 35.8027 28.0616 36.448V28.1474H24.2253V34.0021L20.0627 38.1414L24.2253 42.2814V48.1354H26.8919C19.3882 39.2564 33.1131 37.3096 34.2745 32.2973C35.4362 37.3096 49.1606 39.2564 41.6576 48.1354H44.3238V42.2809L48.4866 38.1414L44.3238 34.0021V28.1474H41.7731V25.7676H46.7162V33.0161L51.87 38.1414L46.7162 43.2669V50.5154H39.4276L34.2745 55.6409L29.1207 50.5154H21.8324V43.2669L16.6785 38.1414L21.8324 33.0161V25.7676H28.0616V23.535ZM10.2307 33.3923C9.2852 39.2139 10.4388 44.8909 13.1369 49.6601C16.5196 52.7711 20.8299 54.9587 25.7193 55.7441C33.3324 56.9669 44.1582 55.0782 52.3789 50.7454C55.7002 46.2351 58.5991 40.2368 60.2445 34.1668C59.9312 29.816 58.826 25.2659 57.0431 21.0948C51.5899 15.4814 43.86 10.9465 37.0247 8.95633C29.2233 10.7425 21.3225 14.6892 16.2961 19.0735C13.1894 23.594 10.9982 28.6654 10.2307 33.3923Z" fill="white"/>
</mask>
<g mask="url(#mask3_120_431)">
<path d="M-7.39111 15.6067L16.344 74.4737L76.9209 50.3167L53.1857 -8.55026L-7.39111 15.6067Z" fill="url(#paint4_linear_120_431)"/>
</g>
</g>
<path fill-rule="evenodd" clip-rule="evenodd" d="M13.1369 49.6601C15.8348 54.4273 20.077 58.288 25.3097 60.4784C33.5368 62.8688 42.7877 60.8383 49.2761 54.3863C50.3339 53.3342 51.3759 52.1076 52.3789 50.7454C40.4261 56.4907 23.4084 59.0465 13.1369 49.6601Z" fill="#1E5981"/>
<path fill-rule="evenodd" clip-rule="evenodd" d="M60.2445 34.1668C60.9046 31.7336 61.3622 29.2883 61.5659 26.9233C60.3788 24.8984 58.8336 22.9388 57.0431 21.0948C58.7491 25.2578 59.8443 29.8068 60.2445 34.1668Z" fill="url(#paint5_linear_120_431)"/>
<path fill-rule="evenodd" clip-rule="evenodd" d="M57.0431 21.0948C54.7149 15.6524 51.2348 10.8557 46.8536 7.99096C43.7567 7.81489 40.3997 8.18354 37.0247 8.95631C43.86 10.9465 51.5899 15.4814 57.0431 21.0948Z" fill="url(#paint6_linear_120_431)"/>
<path fill-rule="evenodd" clip-rule="evenodd" d="M16.1267 19.3222L16.1513 19.2862L16.1516 19.285L16.2961 19.0735C15.8356 19.4752 15.3994 19.8805 14.9897 20.2878C8.32232 26.9182 6.35042 36.4504 9.07299 44.7969C10.2061 46.5838 11.5724 48.2202 13.1369 49.6601C10.4388 44.8909 9.81682 38.6227 10.6661 33.3923C11.5155 28.1612 13.1098 23.7793 16.1267 19.3222Z" fill="url(#paint7_linear_120_431)"/>
<mask id="mask4_120_431" style="mask-type:luminance" maskUnits="userSpaceOnUse" x="23" y="0" width="5" height="5">
<path d="M23.4894 0H27.8654V4.35199H23.4894V0Z" fill="white"/>
</mask>
<g mask="url(#mask4_120_431)">
<mask id="mask5_120_431" style="mask-type:luminance" maskUnits="userSpaceOnUse" x="23" y="0" width="5" height="5">
<path fill-rule="evenodd" clip-rule="evenodd" d="M25.663 0.0361328C26.8503 0.0361328 27.813 0.993717 27.813 2.17497C27.813 3.3555 26.8503 4.31308 25.663 4.31308C24.4755 4.31308 23.5131 3.3555 23.5131 2.17497C23.5131 0.993717 24.4755 0.0361328 25.663 0.0361328Z" fill="white"/>
</mask>
<g mask="url(#mask5_120_431)">
<path d="M21.4277 1.65313L25.1388 6.3864L29.8982 2.69571L26.1872 -2.03757L21.4277 1.65313Z" fill="url(#paint8_linear_120_431)"/>
</g>
</g>
<path fill-rule="evenodd" clip-rule="evenodd" d="M8.2856 52.1088C9.04311 52.1088 9.65727 52.72 9.65727 53.4736C9.65727 54.2265 9.04311 54.8375 8.2856 54.8375C7.52761 54.8375 6.91345 54.2265 6.91345 53.4736C6.91345 52.72 7.52761 52.1088 8.2856 52.1088Z" fill="url(#paint9_linear_120_431)"/>
<path fill-rule="evenodd" clip-rule="evenodd" d="M63.0276 48.2115C64.2904 48.2115 65.3131 49.229 65.3131 50.4844C65.3131 51.7402 64.2904 52.758 63.0276 52.758C61.7649 52.758 60.7415 51.7402 60.7415 50.4844C60.7415 49.229 61.7649 48.2115 63.0276 48.2115Z" fill="url(#paint10_linear_120_431)"/>
<mask id="mask6_120_431" style="mask-type:luminance" maskUnits="userSpaceOnUse" x="65" y="20" width="3" height="3">
<path d="M65.687 20.2679H68V22.5682H65.687V20.2679Z" fill="white"/>
</mask>
<g mask="url(#mask6_120_431)">
<mask id="mask7_120_431" style="mask-type:luminance" maskUnits="userSpaceOnUse" x="65" y="20" width="3" height="3">
<path fill-rule="evenodd" clip-rule="evenodd" d="M66.838 20.2817C67.4688 20.2817 67.9809 20.7903 67.9809 21.4183C67.9809 22.0463 67.4688 22.5549 66.838 22.5549C66.2061 22.5549 65.6952 22.0463 65.6952 21.4183C65.6952 20.7903 66.2061 20.2817 66.838 20.2817Z" fill="white"/>
</mask>
<g mask="url(#mask7_120_431)">
<path d="M64.5868 21.1409L66.5592 23.6567L69.0888 21.6951L67.1164 19.1794L64.5868 21.1409Z" fill="url(#paint11_linear_120_431)"/>
</g>
</g>
<path fill-rule="evenodd" clip-rule="evenodd" d="M3.21097 44.4773C4.98434 44.4773 6.42193 45.9067 6.42193 47.6706C6.42193 49.4342 4.98434 50.8637 3.21097 50.8637C1.4376 50.8637 0 49.4342 0 47.6706C0 45.9067 1.4376 44.4773 3.21097 44.4773Z" fill="url(#paint12_linear_120_431)"/>
<defs>
<linearGradient id="paint0_linear_120_431" x1="32.7904" y1="7.86392" x2="32.7904" y2="62.4457" gradientUnits="userSpaceOnUse">
<stop stop-color="#3498DB"/>
<stop offset="0.88" stop-color="#1C5175"/>
</linearGradient>
<linearGradient id="paint1_linear_120_431" x1="37.0223" y1="5.19553" x2="37.0223" y2="56.1098" gradientUnits="userSpaceOnUse">
<stop stop-color="#3498DB"/>
<stop offset="0.88" stop-color="#1C5175"/>
</linearGradient>
<linearGradient id="paint2_linear_120_431" x1="35.1206" y1="7.82684" x2="35.1206" y2="56.1098" gradientUnits="userSpaceOnUse">
<stop stop-color="#3498DB"/>
<stop offset="0.88" stop-color="#1C5175"/>
</linearGradient>
<linearGradient id="paint3_linear_120_431" x1="35.5736" y1="-15.9911" x2="35.5736" y2="84.4605" gradientUnits="userSpaceOnUse">
<stop stop-color="#3498DB"/>
<stop offset="0.88" stop-color="#1C5175"/>
</linearGradient>
<linearGradient id="paint4_linear_120_431" x1="34.7649" y1="-8.55026" x2="34.7649" y2="74.4737" gradientUnits="userSpaceOnUse">
<stop stop-color="#3498DB"/>
<stop offset="0.88" stop-color="#1C5175"/>
</linearGradient>
<linearGradient id="paint5_linear_120_431" x1="59.3045" y1="21.0948" x2="59.3045" y2="34.1668" gradientUnits="userSpaceOnUse">
<stop stop-color="#3498DB"/>
<stop offset="0.88" stop-color="#1C5175"/>
</linearGradient>
<linearGradient id="paint6_linear_120_431" x1="47.0339" y1="7.94766" x2="47.0339" y2="21.0948" gradientUnits="userSpaceOnUse">
<stop stop-color="#3498DB"/>
<stop offset="0.88" stop-color="#1C5175"/>
</linearGradient>
<linearGradient id="paint7_linear_120_431" x1="12.0925" y1="19.0735" x2="12.0925" y2="49.6601" gradientUnits="userSpaceOnUse">
<stop stop-color="#3498DB"/>
<stop offset="0.88" stop-color="#1C5175"/>
</linearGradient>
<linearGradient id="paint8_linear_120_431" x1="25.663" y1="-2.03757" x2="25.663" y2="6.3864" gradientUnits="userSpaceOnUse">
<stop stop-color="#3498DB"/>
<stop offset="0.88" stop-color="#1C5175"/>
</linearGradient>
<linearGradient id="paint9_linear_120_431" x1="8.28536" y1="52.1088" x2="8.28536" y2="54.8375" gradientUnits="userSpaceOnUse">
<stop stop-color="#3498DB"/>
<stop offset="0.88" stop-color="#1C5175"/>
</linearGradient>
<linearGradient id="paint10_linear_120_431" x1="63.0273" y1="48.2115" x2="63.0273" y2="52.758" gradientUnits="userSpaceOnUse">
<stop stop-color="#3498DB"/>
<stop offset="0.88" stop-color="#1C5175"/>
</linearGradient>
<linearGradient id="paint11_linear_120_431" x1="66.8378" y1="19.1794" x2="66.8378" y2="23.6567" gradientUnits="userSpaceOnUse">
<stop stop-color="#3498DB"/>
<stop offset="0.88" stop-color="#1C5175"/>
</linearGradient>
<linearGradient id="paint12_linear_120_431" x1="3.21097" y1="44.4773" x2="3.21097" y2="50.8637" gradientUnits="userSpaceOnUse">
<stop stop-color="#3498DB"/>
<stop offset="0.88" stop-color="#1C5175"/>
</linearGradient>
</defs>
</svg>
