<svg width="24" height="24" viewBox="0 0 24 24" fill="none" xmlns="http://www.w3.org/2000/svg">
<path d="M11.9999 13.7501C12.5259 13.7501 13.032 13.6646 13.5049 13.5067C15.3906 12.8772 16.7499 11.0974 16.7499 9.00006C16.7499 6.3767 14.6233 4.25006 11.9999 4.25006C11.9794 4.25006 11.959 4.25019 11.9385 4.25045C11.632 4.25433 11.3325 4.28724 11.0426 4.34656C8.87811 4.78947 7.24988 6.70462 7.24988 9.00006C7.24988 11.6234 9.37656 13.7501 11.9999 13.7501Z" fill="#576875"/>
<path fill-rule="evenodd" clip-rule="evenodd" d="M11.7148 1.03063C11.9048 1.0212 12.0951 1.0212 12.285 1.03063C13.0184 1.06704 13.6936 1.28013 14.4462 1.62941C15.1789 1.96944 16.0304 2.46101 17.1075 3.08292L17.1685 3.11813C18.2457 3.74003 19.0972 4.23162 19.758 4.69617C20.4368 5.17335 20.9589 5.65151 21.3571 6.26842C21.4603 6.42822 21.5555 6.59304 21.6423 6.76227C21.9774 7.41559 22.1305 8.10684 22.2043 8.9333C22.2762 9.73786 22.2762 10.721 22.2762 11.9648V12.0353C22.2762 13.2791 22.2762 14.2623 22.2043 15.0668C22.1305 15.8933 21.9774 16.5845 21.6423 17.2378C21.5555 17.4071 21.4603 17.5719 21.3571 17.7317C20.8719 18.4835 20.2005 19.0313 19.2873 19.6198C18.708 19.9932 18.0018 20.4009 17.153 20.8909L17.1076 20.9172C16.0304 21.5391 15.179 22.0307 14.4462 22.3707C13.6936 22.72 13.0184 22.9331 12.285 22.9695C12.0951 22.9789 11.9048 22.9789 11.7148 22.9695C10.9814 22.9331 10.3063 22.72 9.5536 22.3707C8.82087 22.0307 7.96944 21.5391 6.89226 20.9172L6.84745 20.8913C6.00655 20.4058 5.30574 20.0012 4.7297 19.6309C3.80768 19.0381 3.13094 18.4881 2.64268 17.7317C2.53952 17.5719 2.44436 17.4071 2.35755 17.2378C2.0224 16.5845 1.86936 15.8933 1.79551 15.0668C1.72362 14.2622 1.72363 13.2791 1.72363 12.0353V11.9648C1.72363 10.721 1.72362 9.73787 1.79551 8.9333C1.86936 8.10684 2.0224 7.41559 2.35755 6.76227C2.44437 6.59304 2.53952 6.42822 2.64268 6.26842C3.04089 5.65151 3.56301 5.17335 4.24182 4.69617C4.90266 4.23162 5.7541 3.74005 6.83127 3.11815L6.89228 3.08293C7.96945 2.46101 8.82088 1.96944 9.5536 1.62941C10.3063 1.28013 10.9814 1.06704 11.7148 1.03063ZM12.2107 2.52879C12.0702 2.52182 11.9296 2.52182 11.7892 2.52879C11.3163 2.55226 10.8369 2.68753 10.185 2.99004C9.52009 3.2986 8.72616 3.75618 7.61177 4.39958C6.49738 5.04297 5.70414 5.50174 5.10446 5.9233C4.51653 6.3366 4.15967 6.68417 3.90293 7.08191C3.82668 7.20002 3.75635 7.32185 3.69218 7.44693C3.4761 7.86815 3.35352 8.35098 3.28956 9.0668C3.22432 9.79692 3.22363 10.7133 3.22363 12.0001C3.22363 13.2868 3.22432 14.2032 3.28956 14.9333C3.35352 15.6491 3.4761 16.132 3.69218 16.5532C3.75635 16.6783 3.82668 16.8001 3.90293 16.9182C4.10774 17.2355 4.37531 17.5199 4.77295 17.8315C5.5607 16.299 7.1571 15.2501 8.99991 15.2501H14.9999C16.8427 15.2501 18.4391 16.2991 19.2269 17.8315C19.6245 17.5199 19.8921 17.2354 20.0969 16.9182C20.1731 16.8001 20.2435 16.6783 20.3076 16.5532C20.5237 16.132 20.6463 15.6491 20.7103 14.9333C20.7755 14.2032 20.7762 13.2868 20.7762 12.0001C20.7762 10.7133 20.7755 9.79692 20.7103 9.0668C20.6463 8.35098 20.5237 7.86815 20.3076 7.44693C20.2435 7.32185 20.1731 7.20003 20.0969 7.08191C19.8402 6.68417 19.4833 6.3366 18.8954 5.9233C18.2957 5.50174 17.5024 5.04297 16.3881 4.39958C15.2737 3.75618 14.4797 3.2986 13.8148 2.99004C13.1629 2.68753 12.6835 2.55226 12.2107 2.52879Z" fill="#576875"/>
</svg>
